<svg xmlns="http://www.w3.org/2000/svg" width="177" height="29.944"><g><g><path d="M12.038 25.065a7.169 7.169 0 01-7.162-7.16V9.75h2.687v8.155a4.481 4.481 0 004.475 4.476 4.481 4.481 0 004.475-4.476V7.563H0V0h24.077v2.686H2.687v2.192H19.2v13.027a7.169 7.169 0 01-7.162 7.16z"/><path d="M12.038 29.944A12.054 12.054 0 010 17.906V9.751h2.687v8.155a9.361 9.361 0 009.35 9.351 9.363 9.363 0 009.351-9.351V4.879h2.687v13.027a12.054 12.054 0 01-12.037 12.038z"/></g><g><path d="M35.264 22.965a8.4 8.4 0 01-2.145-6.183V6.323h3.441V16.65q0 5.456 4.713 5.455 4.686 0 4.687-5.455V6.323h3.394v10.459a8.429 8.429 0 01-2.131 6.183 8.012 8.012 0 01-5.97 2.158 8.054 8.054 0 01-5.989-2.158zM70.948 7.118a6.1 6.1 0 012.74 2.277 6.368 6.368 0 01.953 3.521 6.388 6.388 0 01-.953 3.509 6.077 6.077 0 01-2.74 2.29 10.262 10.262 0 01-4.2.794h-4.177v5.348h-3.443V6.322h7.625a10.262 10.262 0 014.195.796zm-.94 8.525a3.323 3.323 0 001.164-2.728 3.322 3.322 0 00-1.164-2.727 5.29 5.29 0 00-3.416-.953h-4.021v7.36h4.024a5.29 5.29 0 003.413-.951zM85.001 24.514a8.648 8.648 0 01-3.163-1.615l1.191-2.675a9.373 9.373 0 002.794 1.47 10.144 10.144 0 003.322.569 5.745 5.745 0 003.085-.662 2.006 2.006 0 001.019-1.747 1.7 1.7 0 00-.569-1.311 4 4 0 00-1.444-.807q-.874-.292-2.383-.662a27.788 27.788 0 01-3.429-1.006 5.639 5.639 0 01-2.25-1.576 4.241 4.241 0 01-.94-2.9 4.948 4.948 0 01.834-2.794 5.653 5.653 0 012.515-2 10.2 10.2 0 014.117-.741 13.313 13.313 0 013.337.424 9.215 9.215 0 012.832 1.217l-1.085 2.675a10.754 10.754 0 00-2.543-1.086 9.53 9.53 0 00-2.568-.37 5.367 5.367 0 00-3.032.689 2.125 2.125 0 00-.992 1.826 1.651 1.651 0 00.569 1.3 4.111 4.111 0 001.443.794q.874.292 2.384.662a25.127 25.127 0 013.388.993 5.805 5.805 0 012.264 1.575 4.155 4.155 0 01.939 2.86 4.888 4.888 0 01-.833 2.78 5.67 5.67 0 01-2.529 1.986 10.294 10.294 0 01-4.131.74 14.139 14.139 0 01-4.142-.608zM111.599 17.1l-2.938 3.018v4.739h-3.443V6.322h3.443v9.506l9.16-9.506h3.867l-7.785 8.289 8.261 10.246h-4.024zM129.666 6.323h3.447v18.535h-3.443zM143.035 6.323h3.443v15.623h9.691v2.912h-13.134zM163.867 6.323h3.443v15.623H177v2.912h-13.133z"/></g></g></svg>